<svg class="st11" color-interpolation-filters="sRGB" xml:space="preserve" viewBox="0 0 1116.5 297.5" height="4.13194in" width="15.5069in" xmlns:xlink="http://www.w3.org/1999/xlink" xmlns="http://www.w3.org/2000/svg">
	
		
			
		
	

	<style type="text/css">
	
		.st1 {fill:#f2f2f2;stroke:#2e75b5;stroke-width:0.25}
		.st2 {fill:#deebf6;stroke:#5b9bd5;stroke-width:1}
		.st3 {fill:none;stroke:#5b9bd5;stroke-width:0.75}
		.st4 {stroke:#5b9bd5;stroke-width:0.75}
		.st5 {fill:none;stroke:none;stroke-width:0.25}
		.st6 {fill:#4672c4;font-family:Calibri;font-size:1.00001em}
		.st7 {fill:none;stroke:#5b9bd5;stroke-width:1}
		.st8 {fill:none;stroke:#5b9bd5;stroke-linecap:round;stroke-linejoin:round;stroke-width:1.5}
		.st9 {fill:#4672c4;font-family:Calibri;font-size:0.833336em}
		.st10 {fill:#deebf6;stroke:#5b9bd5;stroke-dasharray:7,5;stroke-width:1}
		.st11 {fill:none;fill-rule:evenodd;font-size:12px;overflow:visible;stroke-linecap:square;stroke-miterlimit:3}
	
	</style>

	<g>
		<title>Page-1</title>
		
		
		<g transform="translate(18.2498,-18.25)" id="shape1-1">
			<title>Rounded Rectangle.396</title>
			
				
				
				
				
				
				
				
				
				
				
				
				
				
				
				
				
			
			<path class="st1" d="M13.05 297.5 L1066.95 297.5 A13.0518 13.0518 -180 0 0 1080 284.45 L1080 49.55 A13.0518 13.0518 -180 0 0 1066.95
						 36.5 L13.05 36.5 A13.0518 13.0518 -180 0 0 -0 49.55 L0 284.45 A13.0518 13.0518 -180 0 0 13.05 297.5 Z"></path>
		</g>
		<g transform="translate(35.1065,-103.75)" id="shape2-3">
			<title>Rounded Rectangle.397</title>
			
				
				
				
				
				
				
				
				
				
				
				
				
				
				
				
				
			
			<path class="st1" d="M12.63 297.5 L1032.51 297.5 A12.6305 12.6305 -180 0 0 1045.14 284.87 L1045.14 148.13 A12.6305 12.6305 -180 0
						 0 1032.51 135.5 L12.63 135.5 A12.6305 12.6305 -180 0 0 0 148.13 L0 284.87 A12.6305 12.6305 -180 0 0 12.63
						 297.5 Z"></path>
		</g>
		<g transform="translate(35.6781,-37.9422)" id="shape3-5">
			<title>Rounded Rectangle.398</title>
			
				
				
				
				
				
				
				
				
				
				
				
				
				
				
				
				
			
			<path class="st1" d="M12.63 297.5 L1032.51 297.5 A12.6305 12.6305 -180 0 0 1045.14 284.87 L1045.14 253.32 A12.6305 12.6305 -180 0
						 0 1032.51 240.69 L12.63 240.69 A12.6305 12.6305 -180 0 0 0 253.32 L0 284.87 A12.6305 12.6305 -180 0 0 12.63
						 297.5 Z"></path>
		</g>
		<g transform="translate(135.213,-124.846)" id="shape4-7">
			<title>Rectangle.399</title>
			
				
			
			<rect class="st2" height="56.8078" width="922.537" y="240.692" x="0"></rect>
		</g>
		<g transform="translate(150.963,-133.846)" id="group5-9">
			<title>Sheet.5</title>
			<g transform="translate(9.89966,-10.331)" id="shape6-10">
				<title>Rounded Rectangle</title>
				
					
					
					
					
					
					
					
					
					
					
					
					
					
					
					
					
				
				<path class="st3" d="M1.84 297.5 L16.59 297.5 A1.84341 1.84341 -180 0 0 18.43 295.66 L18.43 281.51 A1.84341 1.84341 -180 0 0
							 16.59 279.67 L1.84 279.67 A1.84341 1.84341 -180 0 0 0 281.51 L0 295.66 A1.84341 1.84341 -180 0 0 1.84
							 297.5 Z"></path>
			</g>
			<g transform="translate(5.59158,-5.66082)" id="shape7-12">
				<title>Square</title>
				
					
				
				<rect class="st3" height="27.1719" width="27.1402" y="270.328" x="0"></rect>
			</g>
			<g transform="translate(-287.259,264.667) rotate(-90)" id="shape8-14">
				<title>Multi-Line</title>
				
					
					
					
					
					
					
					
					
					
					
					
					
					
					
					
					
					
					
					
					
					
					
					
					
					
					
					
					
					
					
					
					
					
					
					
					
					
					
					
					
					
				
				<path class="st4" d="M0 297.5 L5.59 297.5"></path>
			</g>
			<g transform="translate(-269.166,264.667) rotate(-90)" id="shape9-17">
				<title>Multi-Line.169</title>
				
					
					
					
					
					
					
					
					
					
					
					
					
					
					
					
					
					
					
					
					
					
					
					
					
					
					
					
					
					
					
					
					
					
					
					
					
					
					
					
					
					
				
				<path class="st4" d="M0 297.5 L5.59 297.5"></path>
			</g>
			<g transform="translate(-278.338,264.667) rotate(-90)" id="shape10-20">
				<title>Multi-Line.170</title>
				
					
					
					
					
					
					
					
					
					
					
					
					
					
					
					
					
					
					
					
					
					
					
					
					
					
					
					
					
					
					
					
					
					
					
					
					
					
					
					
					
					
				
				<path class="st4" d="M0 297.5 L5.59 297.5"></path>
			</g>
			<g transform="translate(32.7318,-28.3041)" id="shape11-23">
				<title>Multi-Line.171</title>
				
					
					
					
					
					
					
					
					
					
					
					
					
					
					
					
					
					
					
					
					
					
					
					
					
					
					
					
					
					
					
					
					
					
					
					
					
					
					
					
					
					
				
				<path class="st4" d="M0 297.5 L5.59 297.5"></path>
			</g>
			<g transform="translate(32.7318,-19.2468)" id="shape12-26">
				<title>Multi-Line.172</title>
				
					
					
					
					
					
					
					
					
					
					
					
					
					
					
					
					
					
					
					
					
					
					
					
					
					
					
					
					
					
					
					
					
					
					
					
					
					
					
					
					
					
				
				<path class="st4" d="M0 297.5 L5.59 297.5"></path>
			</g>
			<g transform="translate(32.7318,-10.1898)" id="shape13-29">
				<title>Multi-Line.173</title>
				
					
					
					
					
					
					
					
					
					
					
					
					
					
					
					
					
					
					
					
					
					
					
					
					
					
					
					
					
					
					
					
					
					
					
					
					
					
					
					
					
					
				
				<path class="st4" d="M0 297.5 L5.59 297.5"></path>
			</g>
			<g transform="translate(-287.259,297.43) rotate(-90)" id="shape14-32">
				<title>Multi-Line.174</title>
				
					
					
					
					
					
					
					
					
					
					
					
					
					
					
					
					
					
					
					
					
					
					
					
					
					
					
					
					
					
					
					
					
					
					
					
					
					
					
					
					
					
					
					
					
					
					
					
				
				<path class="st4" d="M0 297.5 L5.59 297.5"></path>
			</g>
			<g transform="translate(-269.166,297.5) rotate(-90)" id="shape15-35">
				<title>Multi-Line.175</title>
				
					
					
					
					
					
					
					
					
					
					
					
					
					
					
					
					
					
					
					
					
					
					
					
					
					
					
					
					
					
					
					
					
					
					
					
					
					
					
					
					
					
				
				<path class="st4" d="M0 297.5 L5.59 297.5"></path>
			</g>
			<g transform="translate(-278.338,297.43) rotate(-90)" id="shape16-38">
				<title>Multi-Line.176</title>
				
					
					
					
					
					
					
					
					
					
					
					
					
					
					
					
					
					
					
					
					
					
					
					
					
					
					
					
					
					
					
					
					
					
					
					
					
					
					
					
					
					
					
					
					
					
					
					
				
				<path class="st4" d="M0 297.5 L5.59 297.5"></path>
			</g>
			<g transform="translate(0.0944336,-10.1895)" id="shape17-41">
				<title>Multi-Line.177</title>
				
					
					
					
					
					
					
					
					
					
					
					
					
					
					
					
					
					
					
					
					
					
					
					
					
					
					
					
					
					
					
					
					
					
					
					
					
					
					
					
					
					
				
				<path class="st4" d="M0 297.5 L5.59 297.5"></path>
			</g>
			<g transform="translate(-3.80196E-13,-19.2468)" id="shape18-44">
				<title>Multi-Line.178</title>
				
					
					
					
					
					
					
					
					
					
					
					
					
					
					
					
					
					
					
					
					
					
					
					
					
					
					
					
					
					
					
					
					
					
					
					
					
					
					
					
					
					
				
				<path class="st4" d="M0 297.5 L5.59 297.5"></path>
			</g>
			<g transform="translate(2.43305E-13,-28.3034)" id="shape19-47">
				<title>Multi-Line.179</title>
				
					
					
					
					
					
					
					
					
					
					
					
					
					
					
					
					
					
					
					
					
					
					
					
					
					
					
					
					
					
					
					
					
					
					
					
					
					
					
					
					
					
				
				<path class="st4" d="M0 297.5 L5.59 297.5"></path>
			</g>
		</g>
		<g transform="translate(198.821,-143.058)" id="shape20-50">
			<title>Sheet.20</title>
			<desc>Kernel</desc>
			
			
			<rect class="st5" height="20" width="85.4267" y="277.5" x="0"></rect>
			<text class="st6" y="291.1" x="4">Kernel</text>		</g>
		<g transform="translate(51.9631,-58.75)" id="group21-53">
			<title>Sheet.21</title>
			<g transform="translate(0,5.8782)" id="shape22-54">
				<title>Round Corner Rectangle</title>
				
					
					
					
					
					
					
					
					
					
					
					
					
					
					
					
					
				
				<path class="st7" d="M0 297.5 L58.43 297.5 L58.43 268.7 L58.43 268.7 L0 268.7 L0 297.5 Z"></path>
			</g>
			<g transform="translate(5.31151,-2.9351)" id="shape23-56">
				<title>Round Corner Rectangle.194</title>
				
					
					
					
					
					
					
					
					
					
					
					
					
					
					
					
					
				
				<path class="st7" d="M2.12 297.5 L19.12 297.5 A2.12457 2.12457 -180 0 0 21.25 295.38 L21.25 291.33 A2.12457 2.12457 -180 0 0
							 19.12 289.21 L2.12 289.21 A2.12457 2.12457 -180 0 0 -0 291.33 L0 295.38 A2.12457 2.12457 -180 0 0 2.12
							 297.5 Z"></path>
			</g>
			<g transform="translate(34.574,-5.11479)" id="shape24-58">
				<title>Circle</title>
				
					
				
				<path class="st7" d="M0 295.53 A1.96723 1.96723 0 1 1 3.93 295.53 A1.96723 1.96723 0 0 1 0 295.53 Z"></path>
			</g>
			<g transform="translate(41.8528,-5.11479)" id="shape25-60">
				<title>Circle.196</title>
				
					
				
				<path class="st7" d="M0 295.53 A1.96723 1.96723 0 1 1 3.93 295.53 A1.96723 1.96723 0 0 1 0 295.53 Z"></path>
			</g>
			<g transform="translate(49.1315,-5.11479)" id="shape26-62">
				<title>Circle.198</title>
				
					
				
				<path class="st7" d="M0 295.53 A1.96723 1.96723 0 1 1 3.93 295.53 A1.96723 1.96723 0 0 1 0 295.53 Z"></path>
			</g>
		</g>
		<g transform="translate(132.963,-58.75)" id="shape27-64">
			<title>Sheet.27</title>
			<desc>Hardware</desc>
			
			
			<rect class="st5" height="20" width="108" y="277.5" x="0"></rect>
			<text class="st6" y="291.1" x="4">Hardware</text>		</g>
		<g transform="translate(135.213,-191.5)" id="shape28-67">
			<title>Rectangle.423</title>
			
				
			
			<rect class="st2" height="56.8078" width="139.5" y="240.692" x="0"></rect>
		</g>
		<g transform="translate(205,-210.75)" id="shape29-69">
			<title>Sheet.29</title>
			<desc>Apps</desc>
			
			
			<rect class="st5" height="20" width="58.4267" y="277.5" x="0"></rect>
			<text class="st6" y="291.1" x="4">Apps</text>		</g>
		<g transform="translate(157.64,-207.226)" id="group30-72">
			<title>Sheet.30</title>
			<g id="shape31-73">
				<title>Rounded Rectangle.80</title>
				
					
					
					
					
					
					
					
					
					
					
					
					
					
					
					
					
				
				<path class="st7" d="M1.69 297.5 L38.88 297.5 A1.69053 1.69053 -180 0 0 40.57 295.81 L40.57 272.14 A1.69053 1.69053 -180 0 0
							 38.88 270.45 L1.69 270.45 A1.69053 1.69053 -180 0 0 0 272.14 L0 295.81 A1.69053 1.69053 -180 0 0 1.69
							 297.5 Z"></path>
			</g>
			<g transform="translate(0,-20.2867)" id="shape32-75">
				<title>Round Same Side Corner Rectangle</title>
				
					
					
					
					
					
					
					
					
					
					
					
					
					
					
				
				<path class="st7" d="M0 297.5 L40.57 297.5 L40.57 292.43 A1.69053 1.69053 -180 0 0 38.88 290.74 L1.69 290.74 A1.69053 1.69053
							 -180 0 0 0 292.43 L0 297.5 Z"></path>
			</g>
			<g transform="translate(32.1206,-22.8225)" id="shape33-77">
				<title>Circle</title>
				
					
				
				<path class="st7" d="M0 296.65 a0.845278 0.845278 0 0 1 1.69056 0 a0.845278 0.845278 0 1 1 -1.69056 0 Z"></path>
			</g>
			<g transform="translate(34.6564,-22.8225)" id="shape34-79">
				<title>Circle.83</title>
				
					
				
				<path class="st7" d="M0 296.65 a0.845278 0.845278 0 0 1 1.69056 0 a0.845278 0.845278 0 1 1 -1.69056 0 Z"></path>
			</g>
			<g transform="translate(37.1922,-22.8225)" id="shape35-81">
				<title>Circle.84</title>
				
					
				
				<path class="st7" d="M0 296.65 a0.845278 0.845278 0 0 1 1.69056 0 a0.845278 0.845278 0 1 1 -1.69056 0 Z"></path>
			</g>
		</g>
		<g transform="translate(283.713,-191.5)" id="shape36-83">
			<title>Rectangle.431</title>
			
				
			
			<rect class="st2" height="56.8078" width="142.857" y="240.692" x="0"></rect>
		</g>
		<g transform="translate(341.143,-209.904)" id="shape37-85">
			<title>Sheet.37</title>
			<desc>Services</desc>
			
			
			<rect class="st5" height="20" width="85.4267" y="277.5" x="0"></rect>
			<text class="st6" y="291.1" x="4">Services</text>		</g>
		<g transform="translate(298.338,-204.733)" id="group38-88">
			<title>Sheet.38</title>
			<g transform="translate(-283.926,295.189) rotate(-90)" id="shape39-89">
				<title>Multi-Line</title>
				
					
					
					
					
					
					
					
					
					
					
					
					
					
					
					
					
					
					
					
					
					
					
					
					
					
					
					
					
					
					
					
					
					
					
					
					
					
					
					
					
					
					
					
					
					
					
					
				
				<path class="st4" d="M0 297.5 L12.36 297.5"></path>
			</g>
			<g transform="translate(28.9452,580.333) rotate(180)" id="shape40-92">
				<title>Multi-Line.209</title>
				
					
					
					
					
					
					
					
					
					
					
					
					
					
					
					
					
					
					
					
					
					
					
					
					
					
					
					
					
					
					
					
					
					
					
					
					
					
					
					
					
					
				
				<path class="st4" d="M0 297.5 L15.37 297.5"></path>
			</g>
			<g transform="translate(326.75,282.805) rotate(90)" id="shape41-95">
				<title>Multi-Line.210</title>
				
					
					
					
					
					
					
					
					
					
					
					
					
					
					
					
					
					
					
					
					
					
					
					
					
					
					
					
					
					
					
					
					
					
					
					
					
					
					
					
					
					
					
					
					
					
					
					
				
				<path class="st4" d="M0 297.5 L14.69 297.5"></path>
			</g>
			<g transform="translate(-14.1481,591.818) rotate(-171.612)" id="shape42-98">
				<title>Multi-Line.211</title>
				
					
					
					
					
					
					
					
					
					
					
					
					
					
					
					
					
					
					
					
					
					
					
					
					
					
					
					
					
					
					
					
					
					
					
					
					
					
					
					
					
					
					
					
					
					
					
					
				
				<path class="st4" d="M0 297.5 L15.85 297.5"></path>
			</g>
			<g transform="translate(-283.927,281.034) rotate(-89.8558)" id="shape43-101">
				<title>Multi-Line.212</title>
				
					
					
					
					
					
					
					
					
					
					
					
					
					
					
					
					
					
					
					
					
					
					
					
					
					
					
					
					
					
					
					
					
					
					
					
					
					
					
					
					
					
					
					
					
					
					
					
				
				<path class="st4" d="M0 297.5 L12.44 297.5"></path>
			</g>
			<g transform="translate(29.25,579.282) rotate(180)" id="shape44-104">
				<title>Multi-Line.213</title>
				
					
					
					
					
					
					
					
					
					
					
					
					
					
					
					
					
					
					
					
					
					
					
					
					
					
					
					
					
					
					
					
					
					
					
					
					
					
					
					
					
					
				
				<path class="st4" d="M0 297.5 L15.68 297.5"></path>
			</g>
			<g transform="translate(-268.25,281.782) rotate(-90)" id="shape45-107">
				<title>Multi-Line.214</title>
				
					
					
					
					
					
					
					
					
					
					
					
					
					
					
					
					
					
					
					
					
					
					
					
					
					
					
					
					
					
					
					
					
					
					
					
					
					
					
					
					
					
				
				<path class="st4" d="M0 297.5 L14.62 297.5"></path>
			</g>
			<g transform="translate(-27.474,-25.3118) rotate(-7.93646)" id="shape46-110">
				<title>Multi-Line.215</title>
				
					
					
					
					
					
					
					
					
					
					
					
					
					
					
					
					
					
					
					
					
					
					
					
					
					
					
					
					
					
					
					
					
					
					
					
					
					
					
					
					
					
					
					
					
					
					
					
				
				<path class="st4" d="M0 297.5 L15.8 297.5"></path>
			</g>
			<g transform="translate(12.6538,579.282) rotate(179.975)" id="shape47-113">
				<title>Multi-Line.216</title>
				
					
					
					
					
					
					
					
					
					
					
					
					
					
					
					
					
					
					
					
					
					
					
					
					
					
					
					
					
					
					
					
					
					
					
					
					
					
					
					
					
					
				
				<path class="st4" d="M0 297.5 L12.52 297.5"></path>
			</g>
			<g transform="translate(310.024,269.587) rotate(90)" id="shape48-116">
				<title>Multi-Line.217</title>
				
					
					
					
					
					
					
					
					
					
					
					
					
					
					
					
					
					
					
					
					
					
					
					
					
					
					
					
					
					
					
					
					
					
					
					
					
					
					
					
					
					
					
					
					
					
					
					
				
				<path class="st4" d="M0 297.5 L12.2 297.5"></path>
			</g>
			<g transform="translate(54.218,564.151) rotate(171.944)" id="shape49-119">
				<title>Multi-Line.218</title>
				
					
					
					
					
					
					
					
					
					
					
					
					
					
					
					
					
					
					
					
					
					
					
					
					
					
					
					
					
					
					
					
					
					
					
					
					
					
					
					
					
					
					
					
					
					
					
					
				
				<path class="st4" d="M0 297.5 L12.65 297.5"></path>
			</g>
			<g transform="translate(297.5,271.36) rotate(90)" id="shape50-122">
				<title>Multi-Line.219</title>
				
					
					
					
					
					
					
					
					
					
					
					
					
					
					
					
					
					
					
					
					
					
					
					
					
					
					
					
					
					
					
					
					
					
					
					
					
					
					
					
					
					
				
				<path class="st4" d="M0 297.5 L10.43 297.5"></path>
			</g>
			<g transform="translate(12.5237,580.305) rotate(180)" id="shape51-125">
				<title>Multi-Line.220</title>
				
					
					
					
					
					
					
					
					
					
					
					
					
					
					
					
					
					
					
					
					
					
					
					
					
					
					
					
					
					
					
					
					
					
					
					
					
					
					
					
					
					
				
				<path class="st4" d="M0 297.5 L12.52 297.5"></path>
			</g>
			<g transform="translate(310.024,282.87) rotate(90.0124)" id="shape52-128">
				<title>Multi-Line.221</title>
				
					
					
					
					
					
					
					
					
					
					
					
					
					
					
					
					
					
					
					
					
					
					
					
					
					
					
					
					
					
					
					
					
					
					
					
					
					
					
					
					
					
				
				<path class="st4" d="M0 297.5 L12.3 297.5"></path>
			</g>
			<g transform="translate(-30.5605,589.468) rotate(-171.674)" id="shape53-131">
				<title>Multi-Line.222</title>
				
					
					
					
					
					
					
					
					
					
					
					
					
					
					
					
					
					
					
					
					
					
					
					
					
					
					
					
					
					
					
					
					
					
					
					
					
					
					
					
					
					
				
				<path class="st4" d="M0 297.5 L12.65 297.5"></path>
			</g>
			<g transform="translate(297.5,282.805) rotate(90)" id="shape54-134">
				<title>Multi-Line.223</title>
				
					
					
					
					
					
					
					
					
					
					
					
					
					
					
					
					
					
					
					
					
					
					
					
					
					
					
					
					
					
					
					
					
					
					
					
					
					
					
					
					
					
				
				<path class="st4" d="M0 297.5 L10.47 297.5"></path>
			</g>
		</g>
		<g transform="translate(51.9631,-143.25)" id="group55-137">
			<title>Sheet.55</title>
			<g transform="translate(8.92667,-29)" id="group56-138">
				<title>Sheet.56</title>
				<g transform="translate(7.99361E-15,-20)" id="group57-139">
					
						
						
						
						
					
					<title>Configure</title>
					<g id="shape58-140">
						<title>Sheet.58</title>
						<path class="st8" d="M8.3 292.32 C6.69 292.32 5.37 291.05 5.37 289.5 C5.37 287.95 6.69 286.68 8.3 286.68 C9.91 286.68
									 11.23 287.95 11.23 289.5 C11.23 291.05 9.91 292.32 8.3 292.32 ZM14.89 287.74 C14.74 287.22 14.53
									 286.72 14.26 286.28 L14.87 284.51 L13.48 283.17 L11.64 283.76 C11.16 283.5 10.64 283.29 10.11
									 283.15 L9.28 281.5 L7.32 281.5 L6.47 283.15 C5.93 283.29 5.42 283.5 4.96 283.76 L3.12 283.17
									 L1.73 284.51 L2.34 286.28 C2.08 286.75 1.86 287.24 1.71 287.76 L0 288.56 L0 290.44 L1.71 291.26
									 C1.86 291.78 2.08 292.28 2.34 292.72 L1.73 294.49 L3.12 295.83 L4.96 295.24 C5.44 295.5 5.96
									 295.71 6.49 295.85 L7.35 297.5 L9.3 297.5 L10.16 295.85 C10.69 295.71 11.21 295.5 11.67 295.24
									 L13.5 295.83 L14.89 294.49 L14.28 292.72 C14.55 292.25 14.77 291.76 14.92 291.24 L16.62 290.42
									 L16.62 288.54 L14.89 287.74 Z"></path>
					</g>
				</g>
				<g transform="translate(12.4685,5.68434E-14)" id="group59-142">
					
						
						
						
						
					
					<title>Configure.140</title>
					<g id="shape60-143">
						<title>Sheet.60</title>
						<path class="st8" d="M14.03 288.75 C11.31 288.75 9.08 286.6 9.08 283.98 C9.08 281.35 11.31 279.2 14.03 279.2 C16.76 279.2
									 18.98 281.35 18.98 283.98 C18.98 286.6 16.76 288.75 14.03 288.75 ZM25.17 280.99 C24.93 280.12
									 24.56 279.28 24.1 278.53 L25.13 275.54 L22.78 273.28 L19.69 274.27 C18.86 273.83 17.99 273.47
									 17.09 273.24 L15.68 270.45 L12.38 270.45 L10.94 273.24 C10.03 273.47 9.16 273.83 8.38 274.27
									 L5.28 273.28 L2.93 275.54 L3.96 278.53 C3.51 279.32 3.14 280.16 2.89 281.03 L0 282.38 L0 285.57
									 L2.89 286.96 C3.14 287.83 3.51 288.67 3.96 289.43 L2.93 292.41 L5.28 294.68 L8.38 293.68 C9.2
									 294.12 10.07 294.48 10.98 294.72 L12.42 297.5 L15.72 297.5 L17.17 294.72 C18.08 294.48 18.94
									 294.12 19.73 293.68 L22.82 294.68 L25.17 292.41 L24.14 289.43 C24.6 288.63 24.97 287.79 25.22
									 286.92 L28.1 285.53 L28.1 282.34 L25.17 280.99 Z"></path>
					</g>
				</g>
			</g>
			<g id="shape61-145">
				<title>Sheet.61</title>
				<desc>OS</desc>
				
				
				<rect class="st5" height="20" width="58.4267" y="277.5" x="0"></rect>
				<text class="st6" y="291.1" x="22.48">OS</text>			</g>
		</g>
		<g transform="translate(436.75,-187)" id="group62-148">
			<title>Sheet.62</title>
			<g transform="translate(22.5,-62.8257)" id="shape63-149">
				<title>Round Corner Rectangle.457</title>
				<desc>Container</desc>
				
					
					
					
					
					
					
					
					
					
					
					
					
					
					
					
					
				
				
				
				<path class="st2" d="M0 297.5 L108 297.5 L108 279.33 A4.49993 4.49993 -180 0 0 103.5 274.83 L4.5 274.83 A4.49993 4.49993 -180
							 0 0 0 279.33 L0 297.5 Z"></path>
				<text class="st9" y="289.16" x="33.99">Container</text>			</g>
			<g id="shape64-152">
				<title>Rounded Rectangle.458</title>
				
					
					
					
					
					
					
					
					
					
					
					
					
					
					
					
					
				
				<path class="st10" d="M4.5 297.5 L306 297.5 A4.49993 4.49993 -180 0 0 310.5 293 L310.5 237 A4.49993 4.49993 -180 0 0 306 232.5
							 L4.5 232.5 A4.49993 4.49993 -180 0 0 0 237 L0 293 A4.49993 4.49993 -180 0 0 4.5 297.5 Z"></path>
			</g>
			<g transform="translate(10.1067,-4.50001)" id="shape65-154">
				<title>Rectangle.459</title>
				
					
				
				<rect class="st2" height="56.8078" width="139.5" y="240.692" x="0"></rect>
			</g>
			<g transform="translate(79.8933,-23.75)" id="shape66-156">
				<title>Sheet.66</title>
				<desc>Apps</desc>
				
				
				<rect class="st5" height="20" width="58.4267" y="277.5" x="0"></rect>
				<text class="st6" y="291.1" x="4">Apps</text>			</g>
			<g transform="translate(32.5333,-20.2256)" id="group67-159">
				<title>Sheet.67</title>
				<g id="shape68-160">
					<title>Rounded Rectangle.80</title>
					
						
						
						
						
						
						
						
						
						
						
						
						
						
						
						
						
					
					<path class="st7" d="M1.69 297.5 L38.88 297.5 A1.69053 1.69053 -180 0 0 40.57 295.81 L40.57 272.14 A1.69053 1.69053 -180
								 0 0 38.88 270.45 L1.69 270.45 A1.69053 1.69053 -180 0 0 0 272.14 L0 295.81 A1.69053 1.69053 -180
								 0 0 1.69 297.5 Z"></path>
				</g>
				<g transform="translate(0,-20.2867)" id="shape69-162">
					<title>Round Same Side Corner Rectangle</title>
					
						
						
						
						
						
						
						
						
						
						
						
						
						
						
					
					<path class="st7" d="M0 297.5 L40.57 297.5 L40.57 292.43 A1.69053 1.69053 -180 0 0 38.88 290.74 L1.69 290.74 A1.69053 1.69053
								 -180 0 0 0 292.43 L0 297.5 Z"></path>
				</g>
				<g transform="translate(32.1206,-22.8225)" id="shape70-164">
					<title>Circle</title>
					
						
					
					<path class="st7" d="M0 296.65 a0.845278 0.845278 0 0 1 1.69056 0 a0.845278 0.845278 0 1 1 -1.69056 0 Z"></path>
				</g>
				<g transform="translate(34.6564,-22.8225)" id="shape71-166">
					<title>Circle.83</title>
					
						
					
					<path class="st7" d="M0 296.65 a0.845278 0.845278 0 0 1 1.69056 0 a0.845278 0.845278 0 1 1 -1.69056 0 Z"></path>
				</g>
				<g transform="translate(37.1922,-22.8225)" id="shape72-168">
					<title>Circle.84</title>
					
						
					
					<path class="st7" d="M0 296.65 a0.845278 0.845278 0 0 1 1.69056 0 a0.845278 0.845278 0 1 1 -1.69056 0 Z"></path>
				</g>
			</g>
			<g transform="translate(158.607,-4.50001)" id="shape73-170">
				<title>Rectangle.467</title>
				
					
				
				<rect class="st2" height="56.8078" width="142.857" y="240.692" x="0"></rect>
			</g>
			<g transform="translate(216.037,-22.9039)" id="shape74-172">
				<title>Sheet.74</title>
				<desc>Services</desc>
				
				
				<rect class="st5" height="20" width="85.4267" y="277.5" x="0"></rect>
				<text class="st6" y="291.1" x="4">Services</text>			</g>
			<g transform="translate(173.232,-17.7326)" id="group75-175">
				<title>Sheet.75</title>
				<g transform="translate(-283.926,295.189) rotate(-90)" id="shape76-176">
					<title>Multi-Line</title>
					
						
						
						
						
						
						
						
						
						
						
						
						
						
						
						
						
						
						
						
						
						
						
						
						
						
						
						
						
						
						
						
						
						
						
						
						
						
						
						
						
						
						
						
						
						
						
						
					
					<path class="st4" d="M0 297.5 L12.36 297.5"></path>
				</g>
				<g transform="translate(28.9452,580.333) rotate(180)" id="shape77-179">
					<title>Multi-Line.209</title>
					
						
						
						
						
						
						
						
						
						
						
						
						
						
						
						
						
						
						
						
						
						
						
						
						
						
						
						
						
						
						
						
						
						
						
						
						
						
						
						
						
						
					
					<path class="st4" d="M0 297.5 L15.37 297.5"></path>
				</g>
				<g transform="translate(326.75,282.805) rotate(90)" id="shape78-182">
					<title>Multi-Line.210</title>
					
						
						
						
						
						
						
						
						
						
						
						
						
						
						
						
						
						
						
						
						
						
						
						
						
						
						
						
						
						
						
						
						
						
						
						
						
						
						
						
						
						
						
						
						
						
						
						
					
					<path class="st4" d="M0 297.5 L14.69 297.5"></path>
				</g>
				<g transform="translate(-14.1481,591.818) rotate(-171.612)" id="shape79-185">
					<title>Multi-Line.211</title>
					
						
						
						
						
						
						
						
						
						
						
						
						
						
						
						
						
						
						
						
						
						
						
						
						
						
						
						
						
						
						
						
						
						
						
						
						
						
						
						
						
						
						
						
						
						
						
						
					
					<path class="st4" d="M0 297.5 L15.85 297.5"></path>
				</g>
				<g transform="translate(-283.927,281.034) rotate(-89.8558)" id="shape80-188">
					<title>Multi-Line.212</title>
					
						
						
						
						
						
						
						
						
						
						
						
						
						
						
						
						
						
						
						
						
						
						
						
						
						
						
						
						
						
						
						
						
						
						
						
						
						
						
						
						
						
						
						
						
						
						
						
					
					<path class="st4" d="M0 297.5 L12.44 297.5"></path>
				</g>
				<g transform="translate(29.25,579.282) rotate(180)" id="shape81-191">
					<title>Multi-Line.213</title>
					
						
						
						
						
						
						
						
						
						
						
						
						
						
						
						
						
						
						
						
						
						
						
						
						
						
						
						
						
						
						
						
						
						
						
						
						
						
						
						
						
						
					
					<path class="st4" d="M0 297.5 L15.68 297.5"></path>
				</g>
				<g transform="translate(-268.25,281.782) rotate(-90)" id="shape82-194">
					<title>Multi-Line.214</title>
					
						
						
						
						
						
						
						
						
						
						
						
						
						
						
						
						
						
						
						
						
						
						
						
						
						
						
						
						
						
						
						
						
						
						
						
						
						
						
						
						
						
					
					<path class="st4" d="M0 297.5 L14.62 297.5"></path>
				</g>
				<g transform="translate(-27.474,-25.3118) rotate(-7.93646)" id="shape83-197">
					<title>Multi-Line.215</title>
					
						
						
						
						
						
						
						
						
						
						
						
						
						
						
						
						
						
						
						
						
						
						
						
						
						
						
						
						
						
						
						
						
						
						
						
						
						
						
						
						
						
						
						
						
						
						
						
					
					<path class="st4" d="M0 297.5 L15.8 297.5"></path>
				</g>
				<g transform="translate(12.6538,579.282) rotate(179.975)" id="shape84-200">
					<title>Multi-Line.216</title>
					
						
						
						
						
						
						
						
						
						
						
						
						
						
						
						
						
						
						
						
						
						
						
						
						
						
						
						
						
						
						
						
						
						
						
						
						
						
						
						
						
						
					
					<path class="st4" d="M0 297.5 L12.52 297.5"></path>
				</g>
				<g transform="translate(310.024,269.587) rotate(90)" id="shape85-203">
					<title>Multi-Line.217</title>
					
						
						
						
						
						
						
						
						
						
						
						
						
						
						
						
						
						
						
						
						
						
						
						
						
						
						
						
						
						
						
						
						
						
						
						
						
						
						
						
						
						
						
						
						
						
						
						
					
					<path class="st4" d="M0 297.5 L12.2 297.5"></path>
				</g>
				<g transform="translate(54.218,564.151) rotate(171.944)" id="shape86-206">
					<title>Multi-Line.218</title>
					
						
						
						
						
						
						
						
						
						
						
						
						
						
						
						
						
						
						
						
						
						
						
						
						
						
						
						
						
						
						
						
						
						
						
						
						
						
						
						
						
						
						
						
						
						
						
						
					
					<path class="st4" d="M0 297.5 L12.65 297.5"></path>
				</g>
				<g transform="translate(297.5,271.36) rotate(90)" id="shape87-209">
					<title>Multi-Line.219</title>
					
						
						
						
						
						
						
						
						
						
						
						
						
						
						
						
						
						
						
						
						
						
						
						
						
						
						
						
						
						
						
						
						
						
						
						
						
						
						
						
						
						
					
					<path class="st4" d="M0 297.5 L10.43 297.5"></path>
				</g>
				<g transform="translate(12.5237,580.305) rotate(180)" id="shape88-212">
					<title>Multi-Line.220</title>
					
						
						
						
						
						
						
						
						
						
						
						
						
						
						
						
						
						
						
						
						
						
						
						
						
						
						
						
						
						
						
						
						
						
						
						
						
						
						
						
						
						
					
					<path class="st4" d="M0 297.5 L12.52 297.5"></path>
				</g>
				<g transform="translate(310.024,282.87) rotate(90.0124)" id="shape89-215">
					<title>Multi-Line.221</title>
					
						
						
						
						
						
						
						
						
						
						
						
						
						
						
						
						
						
						
						
						
						
						
						
						
						
						
						
						
						
						
						
						
						
						
						
						
						
						
						
						
						
					
					<path class="st4" d="M0 297.5 L12.3 297.5"></path>
				</g>
				<g transform="translate(-30.5605,589.468) rotate(-171.674)" id="shape90-218">
					<title>Multi-Line.222</title>
					
						
						
						
						
						
						
						
						
						
						
						
						
						
						
						
						
						
						
						
						
						
						
						
						
						
						
						
						
						
						
						
						
						
						
						
						
						
						
						
						
						
					
					<path class="st4" d="M0 297.5 L12.65 297.5"></path>
				</g>
				<g transform="translate(297.5,282.805) rotate(90)" id="shape91-221">
					<title>Multi-Line.223</title>
					
						
						
						
						
						
						
						
						
						
						
						
						
						
						
						
						
						
						
						
						
						
						
						
						
						
						
						
						
						
						
						
						
						
						
						
						
						
						
						
						
						
					
					<path class="st4" d="M0 297.5 L10.47 297.5"></path>
				</g>
			</g>
		</g>
		<g transform="translate(757.43,-187)" id="group92-224">
			<title>Sheet.92</title>
			<g transform="translate(22.5,-62.8257)" id="shape93-225">
				<title>Round Corner Rectangle.457</title>
				<desc>Container</desc>
				
					
					
					
					
					
					
					
					
					
					
					
					
					
					
					
					
				
				
				
				<path class="st2" d="M0 297.5 L108 297.5 L108 279.33 A4.49993 4.49993 -180 0 0 103.5 274.83 L4.5 274.83 A4.49993 4.49993 -180
							 0 0 0 279.33 L0 297.5 Z"></path>
				<text class="st9" y="289.16" x="33.99">Container</text>			</g>
			<g id="shape94-228">
				<title>Rounded Rectangle.458</title>
				
					
					
					
					
					
					
					
					
					
					
					
					
					
					
					
					
				
				<path class="st10" d="M4.5 297.5 L306 297.5 A4.49993 4.49993 -180 0 0 310.5 293 L310.5 237 A4.49993 4.49993 -180 0 0 306 232.5
							 L4.5 232.5 A4.49993 4.49993 -180 0 0 0 237 L0 293 A4.49993 4.49993 -180 0 0 4.5 297.5 Z"></path>
			</g>
			<g transform="translate(10.1067,-4.50001)" id="shape95-230">
				<title>Rectangle.459</title>
				
					
				
				<rect class="st2" height="56.8078" width="139.5" y="240.692" x="0"></rect>
			</g>
			<g transform="translate(79.8933,-23.75)" id="shape96-232">
				<title>Sheet.96</title>
				<desc>Apps</desc>
				
				
				<rect class="st5" height="20" width="58.4267" y="277.5" x="0"></rect>
				<text class="st6" y="291.1" x="4">Apps</text>			</g>
			<g transform="translate(32.5333,-20.2256)" id="group97-235">
				<title>Sheet.97</title>
				<g id="shape98-236">
					<title>Rounded Rectangle.80</title>
					
						
						
						
						
						
						
						
						
						
						
						
						
						
						
						
						
					
					<path class="st7" d="M1.69 297.5 L38.88 297.5 A1.69053 1.69053 -180 0 0 40.57 295.81 L40.57 272.14 A1.69053 1.69053 -180
								 0 0 38.88 270.45 L1.69 270.45 A1.69053 1.69053 -180 0 0 0 272.14 L0 295.81 A1.69053 1.69053 -180
								 0 0 1.69 297.5 Z"></path>
				</g>
				<g transform="translate(0,-20.2867)" id="shape99-238">
					<title>Round Same Side Corner Rectangle</title>
					
						
						
						
						
						
						
						
						
						
						
						
						
						
						
					
					<path class="st7" d="M0 297.5 L40.57 297.5 L40.57 292.43 A1.69053 1.69053 -180 0 0 38.88 290.74 L1.69 290.74 A1.69053 1.69053
								 -180 0 0 0 292.43 L0 297.5 Z"></path>
				</g>
				<g transform="translate(32.1206,-22.8225)" id="shape100-240">
					<title>Circle</title>
					
						
					
					<path class="st7" d="M0 296.65 a0.845278 0.845278 0 0 1 1.69056 0 a0.845278 0.845278 0 1 1 -1.69056 0 Z"></path>
				</g>
				<g transform="translate(34.6564,-22.8225)" id="shape101-242">
					<title>Circle.83</title>
					
						
					
					<path class="st7" d="M0 296.65 a0.845278 0.845278 0 0 1 1.69056 0 a0.845278 0.845278 0 1 1 -1.69056 0 Z"></path>
				</g>
				<g transform="translate(37.1922,-22.8225)" id="shape102-244">
					<title>Circle.84</title>
					
						
					
					<path class="st7" d="M0 296.65 a0.845278 0.845278 0 0 1 1.69056 0 a0.845278 0.845278 0 1 1 -1.69056 0 Z"></path>
				</g>
			</g>
			<g transform="translate(158.607,-4.50001)" id="shape103-246">
				<title>Rectangle.467</title>
				
					
				
				<rect class="st2" height="56.8078" width="142.857" y="240.692" x="0"></rect>
			</g>
			<g transform="translate(216.037,-22.9039)" id="shape104-248">
				<title>Sheet.104</title>
				<desc>Services</desc>
				
				
				<rect class="st5" height="20" width="85.4267" y="277.5" x="0"></rect>
				<text class="st6" y="291.1" x="4">Services</text>			</g>
			<g transform="translate(173.232,-17.7326)" id="group105-251">
				<title>Sheet.105</title>
				<g transform="translate(-283.926,295.189) rotate(-90)" id="shape106-252">
					<title>Multi-Line</title>
					
						
						
						
						
						
						
						
						
						
						
						
						
						
						
						
						
						
						
						
						
						
						
						
						
						
						
						
						
						
						
						
						
						
						
						
						
						
						
						
						
						
						
						
						
						
						
						
					
					<path class="st4" d="M0 297.5 L12.36 297.5"></path>
				</g>
				<g transform="translate(28.9452,580.333) rotate(180)" id="shape107-255">
					<title>Multi-Line.209</title>
					
						
						
						
						
						
						
						
						
						
						
						
						
						
						
						
						
						
						
						
						
						
						
						
						
						
						
						
						
						
						
						
						
						
						
						
						
						
						
						
						
						
					
					<path class="st4" d="M0 297.5 L15.37 297.5"></path>
				</g>
				<g transform="translate(326.75,282.805) rotate(90)" id="shape108-258">
					<title>Multi-Line.210</title>
					
						
						
						
						
						
						
						
						
						
						
						
						
						
						
						
						
						
						
						
						
						
						
						
						
						
						
						
						
						
						
						
						
						
						
						
						
						
						
						
						
						
						
						
						
						
						
						
					
					<path class="st4" d="M0 297.5 L14.69 297.5"></path>
				</g>
				<g transform="translate(-14.1481,591.818) rotate(-171.612)" id="shape109-261">
					<title>Multi-Line.211</title>
					
						
						
						
						
						
						
						
						
						
						
						
						
						
						
						
						
						
						
						
						
						
						
						
						
						
						
						
						
						
						
						
						
						
						
						
						
						
						
						
						
						
						
						
						
						
						
						
					
					<path class="st4" d="M0 297.5 L15.85 297.5"></path>
				</g>
				<g transform="translate(-283.927,281.034) rotate(-89.8558)" id="shape110-264">
					<title>Multi-Line.212</title>
					
						
						
						
						
						
						
						
						
						
						
						
						
						
						
						
						
						
						
						
						
						
						
						
						
						
						
						
						
						
						
						
						
						
						
						
						
						
						
						
						
						
						
						
						
						
						
						
					
					<path class="st4" d="M0 297.5 L12.44 297.5"></path>
				</g>
				<g transform="translate(29.25,579.282) rotate(180)" id="shape111-267">
					<title>Multi-Line.213</title>
					
						
						
						
						
						
						
						
						
						
						
						
						
						
						
						
						
						
						
						
						
						
						
						
						
						
						
						
						
						
						
						
						
						
						
						
						
						
						
						
						
						
					
					<path class="st4" d="M0 297.5 L15.68 297.5"></path>
				</g>
				<g transform="translate(-268.25,281.782) rotate(-90)" id="shape112-270">
					<title>Multi-Line.214</title>
					
						
						
						
						
						
						
						
						
						
						
						
						
						
						
						
						
						
						
						
						
						
						
						
						
						
						
						
						
						
						
						
						
						
						
						
						
						
						
						
						
						
					
					<path class="st4" d="M0 297.5 L14.62 297.5"></path>
				</g>
				<g transform="translate(-27.474,-25.3118) rotate(-7.93646)" id="shape113-273">
					<title>Multi-Line.215</title>
					
						
						
						
						
						
						
						
						
						
						
						
						
						
						
						
						
						
						
						
						
						
						
						
						
						
						
						
						
						
						
						
						
						
						
						
						
						
						
						
						
						
						
						
						
						
						
						
					
					<path class="st4" d="M0 297.5 L15.8 297.5"></path>
				</g>
				<g transform="translate(12.6538,579.282) rotate(179.975)" id="shape114-276">
					<title>Multi-Line.216</title>
					
						
						
						
						
						
						
						
						
						
						
						
						
						
						
						
						
						
						
						
						
						
						
						
						
						
						
						
						
						
						
						
						
						
						
						
						
						
						
						
						
						
					
					<path class="st4" d="M0 297.5 L12.52 297.5"></path>
				</g>
				<g transform="translate(310.024,269.587) rotate(90)" id="shape115-279">
					<title>Multi-Line.217</title>
					
						
						
						
						
						
						
						
						
						
						
						
						
						
						
						
						
						
						
						
						
						
						
						
						
						
						
						
						
						
						
						
						
						
						
						
						
						
						
						
						
						
						
						
						
						
						
						
					
					<path class="st4" d="M0 297.5 L12.2 297.5"></path>
				</g>
				<g transform="translate(54.218,564.151) rotate(171.944)" id="shape116-282">
					<title>Multi-Line.218</title>
					
						
						
						
						
						
						
						
						
						
						
						
						
						
						
						
						
						
						
						
						
						
						
						
						
						
						
						
						
						
						
						
						
						
						
						
						
						
						
						
						
						
						
						
						
						
						
						
					
					<path class="st4" d="M0 297.5 L12.65 297.5"></path>
				</g>
				<g transform="translate(297.5,271.36) rotate(90)" id="shape117-285">
					<title>Multi-Line.219</title>
					
						
						
						
						
						
						
						
						
						
						
						
						
						
						
						
						
						
						
						
						
						
						
						
						
						
						
						
						
						
						
						
						
						
						
						
						
						
						
						
						
						
					
					<path class="st4" d="M0 297.5 L10.43 297.5"></path>
				</g>
				<g transform="translate(12.5237,580.305) rotate(180)" id="shape118-288">
					<title>Multi-Line.220</title>
					
						
						
						
						
						
						
						
						
						
						
						
						
						
						
						
						
						
						
						
						
						
						
						
						
						
						
						
						
						
						
						
						
						
						
						
						
						
						
						
						
						
					
					<path class="st4" d="M0 297.5 L12.52 297.5"></path>
				</g>
				<g transform="translate(310.024,282.87) rotate(90.0124)" id="shape119-291">
					<title>Multi-Line.221</title>
					
						
						
						
						
						
						
						
						
						
						
						
						
						
						
						
						
						
						
						
						
						
						
						
						
						
						
						
						
						
						
						
						
						
						
						
						
						
						
						
						
						
					
					<path class="st4" d="M0 297.5 L12.3 297.5"></path>
				</g>
				<g transform="translate(-30.5605,589.468) rotate(-171.674)" id="shape120-294">
					<title>Multi-Line.222</title>
					
						
						
						
						
						
						
						
						
						
						
						
						
						
						
						
						
						
						
						
						
						
						
						
						
						
						
						
						
						
						
						
						
						
						
						
						
						
						
						
						
						
					
					<path class="st4" d="M0 297.5 L12.65 297.5"></path>
				</g>
				<g transform="translate(297.5,282.805) rotate(90)" id="shape121-297">
					<title>Multi-Line.223</title>
					
						
						
						
						
						
						
						
						
						
						
						
						
						
						
						
						
						
						
						
						
						
						
						
						
						
						
						
						
						
						
						
						
						
						
						
						
						
						
						
						
						
					
					<path class="st4" d="M0 297.5 L10.47 297.5"></path>
				</g>
			</g>
		</g>
	</g>
</svg>
