<svg class="st11" color-interpolation-filters="sRGB" xml:space="preserve" viewBox="0 0 917.356 302.924" height="4.20728in" width="12.7411in" xmlns:xlink="http://www.w3.org/1999/xlink" xmlns="http://www.w3.org/2000/svg">
	
		
			
			
		
	

	<style type="text/css">
	
		.st1 {fill:#f2f2f2;stroke:#2e75b5;stroke-width:0.25}
		.st2 {fill:#deebf6;stroke:#5b9bd5;stroke-width:1}
		.st3 {fill:none;stroke:#5b9bd5;stroke-width:0.75}
		.st4 {stroke:#5b9bd5;stroke-width:0.75}
		.st5 {fill:none;stroke:none;stroke-width:0.25}
		.st6 {fill:#4672c4;font-family:Calibri;font-size:1.00001em}
		.st7 {fill:none;stroke:#5b9bd5;stroke-width:1}
		.st8 {fill:none;stroke:#5b9bd5;stroke-linecap:round;stroke-linejoin:round;stroke-width:1.5}
		.st9 {fill:#f2f2f2;stroke:#2e75b5;stroke-dasharray:1.75,1.25,0.01,1.25,0.01,1.25;stroke-width:0.25}
		.st10 {fill:#4672c4;font-family:Calibri;font-size:0.833336em}
		.st11 {fill:none;fill-rule:evenodd;font-size:12px;overflow:visible;stroke-linecap:square;stroke-miterlimit:3}
	
	</style>

	<g>
		
			
		
		<title>Page-1</title>
		
		
		<g transform="translate(18.2498,-18.25)" id="shape1-1">
			<title>Rounded Rectangle.304</title>
			
				
				
				
				
				
				
				
				
				
				
				
				
				
				
				
				
			
			<path class="st1" d="M10.65 302.92 L870.21 302.92 A10.6451 10.6451 -180 0 0 880.86 292.28 L880.86 52.57 A10.6451 10.6451 -180 0 0
						 870.21 41.92 L10.65 41.92 A10.6451 10.6451 -180 0 0 0 52.57 L0 292.28 A10.6451 10.6451 -180 0 0 10.65 302.92
						 Z"></path>
		</g>
		<g transform="translate(35.1065,-103.75)" id="group10-3">
			<title>Sheet.10</title>
			<g id="shape11-4">
				<title>Rounded Rectangle.305</title>
				
					
					
					
					
					
					
					
					
					
					
					
					
					
					
					
					
				
				<path class="st1" d="M4.99 302.92 L407.87 302.92 A4.98937 4.98937 -180 0 0 412.86 297.93 L412.86 145.91 A4.98937 4.98937 -180
							 0 0 407.87 140.92 L4.99 140.92 A4.98937 4.98937 -180 0 0 0 145.91 L0 297.93 A4.98937 4.98937 -180 0
							 0 4.99 302.92 Z"></path>
			</g>
			<g transform="translate(100.107,-21.0961)" id="shape12-6">
				<title>Rectangle.307</title>
				
					
				
				<rect class="st2" height="56.8078" width="292.5" y="246.117" x="0"></rect>
			</g>
			<g transform="translate(115.857,-30.0961)" id="group13-8">
				<title>Sheet.13</title>
				<g transform="translate(9.89966,-10.331)" id="shape14-9">
					<title>Rounded Rectangle</title>
					
						
						
						
						
						
						
						
						
						
						
						
						
						
						
						
						
					
					<path class="st3" d="M1.84 302.92 L16.59 302.92 A1.84341 1.84341 -180 0 0 18.43 301.08 L18.43 286.94 A1.84341 1.84341 -180
								 0 0 16.59 285.09 L1.84 285.09 A1.84341 1.84341 -180 0 0 0 286.94 L0 301.08 A1.84341 1.84341 -180
								 0 0 1.84 302.92 Z"></path>
				</g>
				<g transform="translate(5.59158,-5.66082)" id="shape15-11">
					<title>Square</title>
					
						
					
					<rect class="st3" height="27.1719" width="27.1402" y="275.752" x="0"></rect>
				</g>
				<g transform="translate(-292.684,270.092) rotate(-90)" id="shape16-13">
					<title>Multi-Line</title>
					
						
						
						
						
						
						
						
						
						
						
						
						
						
						
						
						
						
						
						
						
						
						
						
						
						
						
						
						
						
						
						
						
						
						
						
						
						
						
						
						
						
					
					<path class="st4" d="M0 302.92 L5.59 302.92"></path>
				</g>
				<g transform="translate(-274.59,270.092) rotate(-90)" id="shape17-16">
					<title>Multi-Line.169</title>
					
						
						
						
						
						
						
						
						
						
						
						
						
						
						
						
						
						
						
						
						
						
						
						
						
						
						
						
						
						
						
						
						
						
						
						
						
						
						
						
						
						
					
					<path class="st4" d="M0 302.92 L5.59 302.92"></path>
				</g>
				<g transform="translate(-283.763,270.092) rotate(-90)" id="shape18-19">
					<title>Multi-Line.170</title>
					
						
						
						
						
						
						
						
						
						
						
						
						
						
						
						
						
						
						
						
						
						
						
						
						
						
						
						
						
						
						
						
						
						
						
						
						
						
						
						
						
						
					
					<path class="st4" d="M0 302.92 L5.59 302.92"></path>
				</g>
				<g transform="translate(32.7318,-28.3041)" id="shape19-22">
					<title>Multi-Line.171</title>
					
						
						
						
						
						
						
						
						
						
						
						
						
						
						
						
						
						
						
						
						
						
						
						
						
						
						
						
						
						
						
						
						
						
						
						
						
						
						
						
						
						
					
					<path class="st4" d="M0 302.92 L5.59 302.92"></path>
				</g>
				<g transform="translate(32.7318,-19.2468)" id="shape20-25">
					<title>Multi-Line.172</title>
					
						
						
						
						
						
						
						
						
						
						
						
						
						
						
						
						
						
						
						
						
						
						
						
						
						
						
						
						
						
						
						
						
						
						
						
						
						
						
						
						
						
					
					<path class="st4" d="M0 302.92 L5.59 302.92"></path>
				</g>
				<g transform="translate(32.7318,-10.1898)" id="shape21-28">
					<title>Multi-Line.173</title>
					
						
						
						
						
						
						
						
						
						
						
						
						
						
						
						
						
						
						
						
						
						
						
						
						
						
						
						
						
						
						
						
						
						
						
						
						
						
						
						
						
						
					
					<path class="st4" d="M0 302.92 L5.59 302.92"></path>
				</g>
				<g transform="translate(-292.684,302.855) rotate(-90)" id="shape22-31">
					<title>Multi-Line.174</title>
					
						
						
						
						
						
						
						
						
						
						
						
						
						
						
						
						
						
						
						
						
						
						
						
						
						
						
						
						
						
						
						
						
						
						
						
						
						
						
						
						
						
						
						
						
						
						
						
					
					<path class="st4" d="M0 302.92 L5.59 302.92"></path>
				</g>
				<g transform="translate(-274.59,302.924) rotate(-90)" id="shape23-34">
					<title>Multi-Line.175</title>
					
						
						
						
						
						
						
						
						
						
						
						
						
						
						
						
						
						
						
						
						
						
						
						
						
						
						
						
						
						
						
						
						
						
						
						
						
						
						
						
						
						
					
					<path class="st4" d="M0 302.92 L5.59 302.92"></path>
				</g>
				<g transform="translate(-283.763,302.855) rotate(-90)" id="shape24-37">
					<title>Multi-Line.176</title>
					
						
						
						
						
						
						
						
						
						
						
						
						
						
						
						
						
						
						
						
						
						
						
						
						
						
						
						
						
						
						
						
						
						
						
						
						
						
						
						
						
						
						
						
						
						
						
						
					
					<path class="st4" d="M0 302.92 L5.59 302.92"></path>
				</g>
				<g transform="translate(0.0944336,-10.1895)" id="shape25-40">
					<title>Multi-Line.177</title>
					
						
						
						
						
						
						
						
						
						
						
						
						
						
						
						
						
						
						
						
						
						
						
						
						
						
						
						
						
						
						
						
						
						
						
						
						
						
						
						
						
						
					
					<path class="st4" d="M0 302.92 L5.59 302.92"></path>
				</g>
				<g transform="translate(-3.80196E-13,-19.2468)" id="shape26-43">
					<title>Multi-Line.178</title>
					
						
						
						
						
						
						
						
						
						
						
						
						
						
						
						
						
						
						
						
						
						
						
						
						
						
						
						
						
						
						
						
						
						
						
						
						
						
						
						
						
						
					
					<path class="st4" d="M0 302.92 L5.59 302.92"></path>
				</g>
				<g transform="translate(2.43305E-13,-28.3034)" id="shape27-46">
					<title>Multi-Line.179</title>
					
						
						
						
						
						
						
						
						
						
						
						
						
						
						
						
						
						
						
						
						
						
						
						
						
						
						
						
						
						
						
						
						
						
						
						
						
						
						
						
						
						
					
					<path class="st4" d="M0 302.92 L5.59 302.92"></path>
				</g>
			</g>
			<g transform="translate(163.715,-39.3083)" id="shape28-49">
				<title>Sheet.28</title>
				<desc>Kernel</desc>
				
				
				<rect class="st5" height="20" width="85.4267" y="282.924" x="0"></rect>
				<text class="st6" y="296.52" x="4">Kernel</text>			</g>
			<g transform="translate(100.107,-87.75)" id="shape29-52">
				<title>Rectangle.333</title>
				
					
				
				<rect class="st2" height="56.8078" width="139.5" y="246.117" x="0"></rect>
			</g>
			<g transform="translate(169.893,-107)" id="shape30-54">
				<title>Sheet.30</title>
				<desc>Apps</desc>
				
				
				<rect class="st5" height="20" width="58.4267" y="282.924" x="0"></rect>
				<text class="st6" y="296.52" x="4">Apps</text>			</g>
			<g transform="translate(122.533,-103.476)" id="group31-57">
				<title>Sheet.31</title>
				<g id="shape32-58">
					<title>Rounded Rectangle.80</title>
					
						
						
						
						
						
						
						
						
						
						
						
						
						
						
						
						
					
					<path class="st7" d="M1.69 302.92 L38.88 302.92 A1.69053 1.69053 -180 0 0 40.57 301.23 L40.57 277.57 A1.69053 1.69053 -180
								 0 0 38.88 275.88 L1.69 275.88 A1.69053 1.69053 -180 0 0 0 277.57 L0 301.23 A1.69053 1.69053 -180
								 0 0 1.69 302.92 Z"></path>
				</g>
				<g transform="translate(0,-20.2867)" id="shape33-60">
					<title>Round Same Side Corner Rectangle</title>
					
						
						
						
						
						
						
						
						
						
						
						
						
						
						
					
					<path class="st7" d="M0 302.92 L40.57 302.92 L40.57 297.85 A1.69053 1.69053 -180 0 0 38.88 296.16 L1.69 296.16 A1.69053 1.69053
								 -180 0 0 0 297.85 L0 302.92 Z"></path>
				</g>
				<g transform="translate(32.1206,-22.8225)" id="shape34-62">
					<title>Circle</title>
					
						
					
					<path class="st7" d="M0 302.08 a0.845278 0.845278 0 0 1 1.69056 0 a0.845278 0.845278 0 1 1 -1.69056 0 Z"></path>
				</g>
				<g transform="translate(34.6564,-22.8225)" id="shape35-64">
					<title>Circle.83</title>
					
						
					
					<path class="st7" d="M0 302.08 a0.845278 0.845278 0 0 1 1.69056 0 a0.845278 0.845278 0 1 1 -1.69056 0 Z"></path>
				</g>
				<g transform="translate(37.1922,-22.8225)" id="shape36-66">
					<title>Circle.84</title>
					
						
					
					<path class="st7" d="M0 302.08 a0.845278 0.845278 0 0 1 1.69056 0 a0.845278 0.845278 0 1 1 -1.69056 0 Z"></path>
				</g>
			</g>
			<g transform="translate(248.607,-87.75)" id="shape37-68">
				<title>Rectangle.341</title>
				
					
				
				<rect class="st2" height="56.8078" width="142.857" y="246.117" x="0"></rect>
			</g>
			<g transform="translate(306.037,-106.154)" id="shape38-70">
				<title>Sheet.38</title>
				<desc>Services</desc>
				
				
				<rect class="st5" height="20" width="85.4267" y="282.924" x="0"></rect>
				<text class="st6" y="296.52" x="4">Services</text>			</g>
			<g transform="translate(263.232,-100.983)" id="group39-73">
				<title>Sheet.39</title>
				<g transform="translate(-289.35,300.613) rotate(-90)" id="shape40-74">
					<title>Multi-Line</title>
					
						
						
						
						
						
						
						
						
						
						
						
						
						
						
						
						
						
						
						
						
						
						
						
						
						
						
						
						
						
						
						
						
						
						
						
						
						
						
						
						
						
						
						
						
						
						
						
					
					<path class="st4" d="M0 302.92 L12.36 302.92"></path>
				</g>
				<g transform="translate(28.9452,591.182) rotate(180)" id="shape41-77">
					<title>Multi-Line.209</title>
					
						
						
						
						
						
						
						
						
						
						
						
						
						
						
						
						
						
						
						
						
						
						
						
						
						
						
						
						
						
						
						
						
						
						
						
						
						
						
						
						
						
					
					<path class="st4" d="M0 302.92 L15.37 302.92"></path>
				</g>
				<g transform="translate(332.174,288.23) rotate(90)" id="shape42-80">
					<title>Multi-Line.210</title>
					
						
						
						
						
						
						
						
						
						
						
						
						
						
						
						
						
						
						
						
						
						
						
						
						
						
						
						
						
						
						
						
						
						
						
						
						
						
						
						
						
						
						
						
						
						
						
						
					
					<path class="st4" d="M0 302.92 L14.69 302.92"></path>
				</g>
				<g transform="translate(-14.9393,602.608) rotate(-171.612)" id="shape43-83">
					<title>Multi-Line.211</title>
					
						
						
						
						
						
						
						
						
						
						
						
						
						
						
						
						
						
						
						
						
						
						
						
						
						
						
						
						
						
						
						
						
						
						
						
						
						
						
						
						
						
						
						
						
						
						
						
					
					<path class="st4" d="M0 302.92 L15.85 302.92"></path>
				</g>
				<g transform="translate(-289.351,286.444) rotate(-89.8558)" id="shape44-86">
					<title>Multi-Line.212</title>
					
						
						
						
						
						
						
						
						
						
						
						
						
						
						
						
						
						
						
						
						
						
						
						
						
						
						
						
						
						
						
						
						
						
						
						
						
						
						
						
						
						
						
						
						
						
						
						
					
					<path class="st4" d="M0 302.92 L12.44 302.92"></path>
				</g>
				<g transform="translate(29.25,590.131) rotate(180)" id="shape45-89">
					<title>Multi-Line.213</title>
					
						
						
						
						
						
						
						
						
						
						
						
						
						
						
						
						
						
						
						
						
						
						
						
						
						
						
						
						
						
						
						
						
						
						
						
						
						
						
						
						
						
					
					<path class="st4" d="M0 302.92 L15.68 302.92"></path>
				</g>
				<g transform="translate(-273.674,287.207) rotate(-90)" id="shape46-92">
					<title>Multi-Line.214</title>
					
						
						
						
						
						
						
						
						
						
						
						
						
						
						
						
						
						
						
						
						
						
						
						
						
						
						
						
						
						
						
						
						
						
						
						
						
						
						
						
						
						
					
					<path class="st4" d="M0 302.92 L14.62 302.92"></path>
				</g>
				<g transform="translate(-28.2229,-25.2599) rotate(-7.93646)" id="shape47-95">
					<title>Multi-Line.215</title>
					
						
						
						
						
						
						
						
						
						
						
						
						
						
						
						
						
						
						
						
						
						
						
						
						
						
						
						
						
						
						
						
						
						
						
						
						
						
						
						
						
						
						
						
						
						
						
						
					
					<path class="st4" d="M0 302.92 L15.8 302.92"></path>
				</g>
				<g transform="translate(12.6562,590.131) rotate(179.975)" id="shape48-98">
					<title>Multi-Line.216</title>
					
						
						
						
						
						
						
						
						
						
						
						
						
						
						
						
						
						
						
						
						
						
						
						
						
						
						
						
						
						
						
						
						
						
						
						
						
						
						
						
						
						
					
					<path class="st4" d="M0 302.92 L12.52 302.92"></path>
				</g>
				<g transform="translate(315.448,275.012) rotate(90)" id="shape49-101">
					<title>Multi-Line.217</title>
					
						
						
						
						
						
						
						
						
						
						
						
						
						
						
						
						
						
						
						
						
						
						
						
						
						
						
						
						
						
						
						
						
						
						
						
						
						
						
						
						
						
						
						
						
						
						
						
					
					<path class="st4" d="M0 302.92 L12.2 302.92"></path>
				</g>
				<g transform="translate(54.9783,574.946) rotate(171.944)" id="shape50-104">
					<title>Multi-Line.218</title>
					
						
						
						
						
						
						
						
						
						
						
						
						
						
						
						
						
						
						
						
						
						
						
						
						
						
						
						
						
						
						
						
						
						
						
						
						
						
						
						
						
						
						
						
						
						
						
						
					
					<path class="st4" d="M0 302.92 L12.65 302.92"></path>
				</g>
				<g transform="translate(302.924,276.784) rotate(90)" id="shape51-107">
					<title>Multi-Line.219</title>
					
						
						
						
						
						
						
						
						
						
						
						
						
						
						
						
						
						
						
						
						
						
						
						
						
						
						
						
						
						
						
						
						
						
						
						
						
						
						
						
						
						
					
					<path class="st4" d="M0 302.92 L10.43 302.92"></path>
				</g>
				<g transform="translate(12.5237,591.154) rotate(180)" id="shape52-110">
					<title>Multi-Line.220</title>
					
						
						
						
						
						
						
						
						
						
						
						
						
						
						
						
						
						
						
						
						
						
						
						
						
						
						
						
						
						
						
						
						
						
						
						
						
						
						
						
						
						
					
					<path class="st4" d="M0 302.92 L12.52 302.92"></path>
				</g>
				<g transform="translate(315.448,288.295) rotate(90.0124)" id="shape53-113">
					<title>Multi-Line.221</title>
					
						
						
						
						
						
						
						
						
						
						
						
						
						
						
						
						
						
						
						
						
						
						
						
						
						
						
						
						
						
						
						
						
						
						
						
						
						
						
						
						
						
					
					<path class="st4" d="M0 302.92 L12.3 302.92"></path>
				</g>
				<g transform="translate(-31.346,600.26) rotate(-171.674)" id="shape54-116">
					<title>Multi-Line.222</title>
					
						
						
						
						
						
						
						
						
						
						
						
						
						
						
						
						
						
						
						
						
						
						
						
						
						
						
						
						
						
						
						
						
						
						
						
						
						
						
						
						
						
					
					<path class="st4" d="M0 302.92 L12.65 302.92"></path>
				</g>
				<g transform="translate(302.924,288.23) rotate(90)" id="shape55-119">
					<title>Multi-Line.223</title>
					
						
						
						
						
						
						
						
						
						
						
						
						
						
						
						
						
						
						
						
						
						
						
						
						
						
						
						
						
						
						
						
						
						
						
						
						
						
						
						
						
						
					
					<path class="st4" d="M0 302.92 L10.47 302.92"></path>
				</g>
			</g>
			<g transform="translate(16.8567,-39.5)" id="group56-122">
				<title>Sheet.56</title>
				<g transform="translate(8.92667,-29)" id="group57-123">
					<title>Sheet.57</title>
					<g transform="translate(7.99361E-15,-20)" id="group58-124">
						
							
							
							
							
						
						<title>Configure</title>
						<g id="shape59-125">
							<title>Sheet.59</title>
							<path class="st8" d="M8.3 297.75 C6.69 297.75 5.37 296.48 5.37 294.92 C5.37 293.37 6.69 292.1 8.3 292.1 C9.91 292.1
										 11.23 293.37 11.23 294.92 C11.23 296.48 9.91 297.75 8.3 297.75 ZM14.89 293.16 C14.74 292.64
										 14.53 292.15 14.26 291.7 L14.87 289.94 L13.48 288.59 L11.64 289.18 C11.16 288.92 10.64 288.71
										 10.11 288.57 L9.28 286.92 L7.32 286.92 L6.47 288.57 C5.93 288.71 5.42 288.92 4.96 289.18
										 L3.12 288.59 L1.73 289.94 L2.34 291.7 C2.08 292.17 1.86 292.67 1.71 293.18 L0 293.98 L0
										 295.87 L1.71 296.69 C1.86 297.21 2.08 297.7 2.34 298.15 L1.73 299.91 L3.12 301.25 L4.96
										 300.67 C5.44 300.92 5.96 301.14 6.49 301.28 L7.35 302.92 L9.3 302.92 L10.16 301.28 C10.69
										 301.14 11.21 300.92 11.67 300.67 L13.5 301.25 L14.89 299.91 L14.28 298.15 C14.55 297.68
										 14.77 297.18 14.92 296.67 L16.62 295.84 L16.62 293.96 L14.89 293.16 Z"></path>
						</g>
					</g>
					<g transform="translate(12.4685,0)" id="group60-127">
						
							
							
							
							
						
						<title>Configure.140</title>
						<g id="shape61-128">
							<title>Sheet.61</title>
							<path class="st8" d="M14.03 294.17 C11.31 294.17 9.08 292.03 9.08 289.4 C9.08 286.77 11.31 284.63 14.03 284.63 C16.76
										 284.63 18.98 286.77 18.98 289.4 C18.98 292.03 16.76 294.17 14.03 294.17 ZM25.17 286.42 C24.93
										 285.54 24.56 284.71 24.1 283.95 L25.13 280.97 L22.78 278.7 L19.69 279.69 C18.86 279.26 17.99
										 278.9 17.09 278.66 L15.68 275.88 L12.38 275.88 L10.94 278.66 C10.03 278.9 9.16 279.26 8.38
										 279.69 L5.28 278.7 L2.93 280.97 L3.96 283.95 C3.51 284.75 3.14 285.58 2.89 286.46 L0 287.81
										 L0 290.99 L2.89 292.38 C3.14 293.26 3.51 294.09 3.96 294.85 L2.93 297.83 L5.28 300.1 L8.38
										 299.11 C9.2 299.54 10.07 299.9 10.98 300.14 L12.42 302.92 L15.72 302.92 L17.17 300.14 C18.08
										 299.9 18.94 299.54 19.73 299.11 L22.82 300.1 L25.17 297.83 L24.14 294.85 C24.6 294.05 24.97
										 293.22 25.22 292.34 L28.1 290.95 L28.1 287.77 L25.17 286.42 Z"></path>
						</g>
					</g>
				</g>
				<g id="shape62-130">
					<title>Sheet.62</title>
					<desc>OS</desc>
					
					
					<rect class="st5" height="20" width="58.4267" y="282.924" x="0"></rect>
					<text class="st6" y="296.52" x="22.48">OS</text>				</g>
			</g>
		</g>
		<g transform="translate(467.106,-103.75)" id="group64-133">
			<title>Sheet.64</title>
			<g id="shape65-134">
				<title>Rounded Rectangle.305</title>
				
					
					
					
					
					
					
					
					
					
					
					
					
					
					
					
					
				
				<path class="st9" d="M4.99 302.92 L407.87 302.92 A4.98937 4.98937 -180 0 0 412.86 297.93 L412.86 145.91 A4.98937 4.98937 -180
							 0 0 407.87 140.92 L4.99 140.92 A4.98937 4.98937 -180 0 0 0 145.91 L0 297.93 A4.98937 4.98937 -180 0
							 0 4.99 302.92 Z"></path>
			</g>
			<g transform="translate(100.107,-21.0961)" id="shape66-136">
				<title>Rectangle.307</title>
				
					
				
				<rect class="st2" height="56.8078" width="292.5" y="246.117" x="0"></rect>
			</g>
			<g transform="translate(115.857,-30.0961)" id="group67-138">
				<title>Sheet.67</title>
				<g transform="translate(9.89966,-10.331)" id="shape68-139">
					<title>Rounded Rectangle</title>
					
						
						
						
						
						
						
						
						
						
						
						
						
						
						
						
						
					
					<path class="st3" d="M1.84 302.92 L16.59 302.92 A1.84341 1.84341 -180 0 0 18.43 301.08 L18.43 286.94 A1.84341 1.84341 -180
								 0 0 16.59 285.09 L1.84 285.09 A1.84341 1.84341 -180 0 0 0 286.94 L0 301.08 A1.84341 1.84341 -180
								 0 0 1.84 302.92 Z"></path>
				</g>
				<g transform="translate(5.59158,-5.66082)" id="shape69-141">
					<title>Square</title>
					
						
					
					<rect class="st3" height="27.1719" width="27.1402" y="275.752" x="0"></rect>
				</g>
				<g transform="translate(-292.684,270.092) rotate(-90)" id="shape70-143">
					<title>Multi-Line</title>
					
						
						
						
						
						
						
						
						
						
						
						
						
						
						
						
						
						
						
						
						
						
						
						
						
						
						
						
						
						
						
						
						
						
						
						
						
						
						
						
						
						
					
					<path class="st4" d="M0 302.92 L5.59 302.92"></path>
				</g>
				<g transform="translate(-274.59,270.092) rotate(-90)" id="shape71-146">
					<title>Multi-Line.169</title>
					
						
						
						
						
						
						
						
						
						
						
						
						
						
						
						
						
						
						
						
						
						
						
						
						
						
						
						
						
						
						
						
						
						
						
						
						
						
						
						
						
						
					
					<path class="st4" d="M0 302.92 L5.59 302.92"></path>
				</g>
				<g transform="translate(-283.763,270.092) rotate(-90)" id="shape72-149">
					<title>Multi-Line.170</title>
					
						
						
						
						
						
						
						
						
						
						
						
						
						
						
						
						
						
						
						
						
						
						
						
						
						
						
						
						
						
						
						
						
						
						
						
						
						
						
						
						
						
					
					<path class="st4" d="M0 302.92 L5.59 302.92"></path>
				</g>
				<g transform="translate(32.7318,-28.3041)" id="shape73-152">
					<title>Multi-Line.171</title>
					
						
						
						
						
						
						
						
						
						
						
						
						
						
						
						
						
						
						
						
						
						
						
						
						
						
						
						
						
						
						
						
						
						
						
						
						
						
						
						
						
						
					
					<path class="st4" d="M0 302.92 L5.59 302.92"></path>
				</g>
				<g transform="translate(32.7318,-19.2468)" id="shape74-155">
					<title>Multi-Line.172</title>
					
						
						
						
						
						
						
						
						
						
						
						
						
						
						
						
						
						
						
						
						
						
						
						
						
						
						
						
						
						
						
						
						
						
						
						
						
						
						
						
						
						
					
					<path class="st4" d="M0 302.92 L5.59 302.92"></path>
				</g>
				<g transform="translate(32.7318,-10.1898)" id="shape75-158">
					<title>Multi-Line.173</title>
					
						
						
						
						
						
						
						
						
						
						
						
						
						
						
						
						
						
						
						
						
						
						
						
						
						
						
						
						
						
						
						
						
						
						
						
						
						
						
						
						
						
					
					<path class="st4" d="M0 302.92 L5.59 302.92"></path>
				</g>
				<g transform="translate(-292.684,302.855) rotate(-90)" id="shape76-161">
					<title>Multi-Line.174</title>
					
						
						
						
						
						
						
						
						
						
						
						
						
						
						
						
						
						
						
						
						
						
						
						
						
						
						
						
						
						
						
						
						
						
						
						
						
						
						
						
						
						
						
						
						
						
						
						
					
					<path class="st4" d="M0 302.92 L5.59 302.92"></path>
				</g>
				<g transform="translate(-274.59,302.924) rotate(-90)" id="shape77-164">
					<title>Multi-Line.175</title>
					
						
						
						
						
						
						
						
						
						
						
						
						
						
						
						
						
						
						
						
						
						
						
						
						
						
						
						
						
						
						
						
						
						
						
						
						
						
						
						
						
						
					
					<path class="st4" d="M0 302.92 L5.59 302.92"></path>
				</g>
				<g transform="translate(-283.763,302.855) rotate(-90)" id="shape78-167">
					<title>Multi-Line.176</title>
					
						
						
						
						
						
						
						
						
						
						
						
						
						
						
						
						
						
						
						
						
						
						
						
						
						
						
						
						
						
						
						
						
						
						
						
						
						
						
						
						
						
						
						
						
						
						
						
					
					<path class="st4" d="M0 302.92 L5.59 302.92"></path>
				</g>
				<g transform="translate(0.0944336,-10.1895)" id="shape79-170">
					<title>Multi-Line.177</title>
					
						
						
						
						
						
						
						
						
						
						
						
						
						
						
						
						
						
						
						
						
						
						
						
						
						
						
						
						
						
						
						
						
						
						
						
						
						
						
						
						
						
					
					<path class="st4" d="M0 302.92 L5.59 302.92"></path>
				</g>
				<g transform="translate(-3.80196E-13,-19.2468)" id="shape80-173">
					<title>Multi-Line.178</title>
					
						
						
						
						
						
						
						
						
						
						
						
						
						
						
						
						
						
						
						
						
						
						
						
						
						
						
						
						
						
						
						
						
						
						
						
						
						
						
						
						
						
					
					<path class="st4" d="M0 302.92 L5.59 302.92"></path>
				</g>
				<g transform="translate(2.43305E-13,-28.3034)" id="shape81-176">
					<title>Multi-Line.179</title>
					
						
						
						
						
						
						
						
						
						
						
						
						
						
						
						
						
						
						
						
						
						
						
						
						
						
						
						
						
						
						
						
						
						
						
						
						
						
						
						
						
						
					
					<path class="st4" d="M0 302.92 L5.59 302.92"></path>
				</g>
			</g>
			<g transform="translate(163.715,-39.3083)" id="shape82-179">
				<title>Sheet.82</title>
				<desc>Kernel</desc>
				
				
				<rect class="st5" height="20" width="85.4267" y="282.924" x="0"></rect>
				<text class="st6" y="296.52" x="4">Kernel</text>			</g>
			<g transform="translate(100.107,-87.75)" id="shape83-182">
				<title>Rectangle.333</title>
				
					
				
				<rect class="st2" height="56.8078" width="139.5" y="246.117" x="0"></rect>
			</g>
			<g transform="translate(169.893,-107)" id="shape84-184">
				<title>Sheet.84</title>
				<desc>Apps</desc>
				
				
				<rect class="st5" height="20" width="58.4267" y="282.924" x="0"></rect>
				<text class="st6" y="296.52" x="4">Apps</text>			</g>
			<g transform="translate(122.533,-103.476)" id="group85-187">
				<title>Sheet.85</title>
				<g id="shape86-188">
					<title>Rounded Rectangle.80</title>
					
						
						
						
						
						
						
						
						
						
						
						
						
						
						
						
						
					
					<path class="st7" d="M1.69 302.92 L38.88 302.92 A1.69053 1.69053 -180 0 0 40.57 301.23 L40.57 277.57 A1.69053 1.69053 -180
								 0 0 38.88 275.88 L1.69 275.88 A1.69053 1.69053 -180 0 0 0 277.57 L0 301.23 A1.69053 1.69053 -180
								 0 0 1.69 302.92 Z"></path>
				</g>
				<g transform="translate(0,-20.2867)" id="shape87-190">
					<title>Round Same Side Corner Rectangle</title>
					
						
						
						
						
						
						
						
						
						
						
						
						
						
						
					
					<path class="st7" d="M0 302.92 L40.57 302.92 L40.57 297.85 A1.69053 1.69053 -180 0 0 38.88 296.16 L1.69 296.16 A1.69053 1.69053
								 -180 0 0 0 297.85 L0 302.92 Z"></path>
				</g>
				<g transform="translate(32.1206,-22.8225)" id="shape88-192">
					<title>Circle</title>
					
						
					
					<path class="st7" d="M0 302.08 a0.845278 0.845278 0 0 1 1.69056 0 a0.845278 0.845278 0 1 1 -1.69056 0 Z"></path>
				</g>
				<g transform="translate(34.6564,-22.8225)" id="shape89-194">
					<title>Circle.83</title>
					
						
					
					<path class="st7" d="M0 302.08 a0.845278 0.845278 0 0 1 1.69056 0 a0.845278 0.845278 0 1 1 -1.69056 0 Z"></path>
				</g>
				<g transform="translate(37.1922,-22.8225)" id="shape90-196">
					<title>Circle.84</title>
					
						
					
					<path class="st7" d="M0 302.08 a0.845278 0.845278 0 0 1 1.69056 0 a0.845278 0.845278 0 1 1 -1.69056 0 Z"></path>
				</g>
			</g>
			<g transform="translate(248.607,-87.75)" id="shape91-198">
				<title>Rectangle.341</title>
				
					
				
				<rect class="st2" height="56.8078" width="142.857" y="246.117" x="0"></rect>
			</g>
			<g transform="translate(306.037,-106.154)" id="shape92-200">
				<title>Sheet.92</title>
				<desc>Services</desc>
				
				
				<rect class="st5" height="20" width="85.4267" y="282.924" x="0"></rect>
				<text class="st6" y="296.52" x="4">Services</text>			</g>
			<g transform="translate(263.232,-100.983)" id="group93-203">
				<title>Sheet.93</title>
				<g transform="translate(-289.35,300.613) rotate(-90)" id="shape94-204">
					<title>Multi-Line</title>
					
						
						
						
						
						
						
						
						
						
						
						
						
						
						
						
						
						
						
						
						
						
						
						
						
						
						
						
						
						
						
						
						
						
						
						
						
						
						
						
						
						
						
						
						
						
						
						
					
					<path class="st4" d="M0 302.92 L12.36 302.92"></path>
				</g>
				<g transform="translate(28.9452,591.182) rotate(180)" id="shape95-207">
					<title>Multi-Line.209</title>
					
						
						
						
						
						
						
						
						
						
						
						
						
						
						
						
						
						
						
						
						
						
						
						
						
						
						
						
						
						
						
						
						
						
						
						
						
						
						
						
						
						
					
					<path class="st4" d="M0 302.92 L15.37 302.92"></path>
				</g>
				<g transform="translate(332.174,288.23) rotate(90)" id="shape96-210">
					<title>Multi-Line.210</title>
					
						
						
						
						
						
						
						
						
						
						
						
						
						
						
						
						
						
						
						
						
						
						
						
						
						
						
						
						
						
						
						
						
						
						
						
						
						
						
						
						
						
						
						
						
						
						
						
					
					<path class="st4" d="M0 302.92 L14.69 302.92"></path>
				</g>
				<g transform="translate(-14.9393,602.608) rotate(-171.612)" id="shape97-213">
					<title>Multi-Line.211</title>
					
						
						
						
						
						
						
						
						
						
						
						
						
						
						
						
						
						
						
						
						
						
						
						
						
						
						
						
						
						
						
						
						
						
						
						
						
						
						
						
						
						
						
						
						
						
						
						
					
					<path class="st4" d="M0 302.92 L15.85 302.92"></path>
				</g>
				<g transform="translate(-289.351,286.444) rotate(-89.8558)" id="shape98-216">
					<title>Multi-Line.212</title>
					
						
						
						
						
						
						
						
						
						
						
						
						
						
						
						
						
						
						
						
						
						
						
						
						
						
						
						
						
						
						
						
						
						
						
						
						
						
						
						
						
						
						
						
						
						
						
						
					
					<path class="st4" d="M0 302.92 L12.44 302.92"></path>
				</g>
				<g transform="translate(29.25,590.131) rotate(180)" id="shape99-219">
					<title>Multi-Line.213</title>
					
						
						
						
						
						
						
						
						
						
						
						
						
						
						
						
						
						
						
						
						
						
						
						
						
						
						
						
						
						
						
						
						
						
						
						
						
						
						
						
						
						
					
					<path class="st4" d="M0 302.92 L15.68 302.92"></path>
				</g>
				<g transform="translate(-273.674,287.207) rotate(-90)" id="shape100-222">
					<title>Multi-Line.214</title>
					
						
						
						
						
						
						
						
						
						
						
						
						
						
						
						
						
						
						
						
						
						
						
						
						
						
						
						
						
						
						
						
						
						
						
						
						
						
						
						
						
						
					
					<path class="st4" d="M0 302.92 L14.62 302.92"></path>
				</g>
				<g transform="translate(-28.2229,-25.2599) rotate(-7.93646)" id="shape101-225">
					<title>Multi-Line.215</title>
					
						
						
						
						
						
						
						
						
						
						
						
						
						
						
						
						
						
						
						
						
						
						
						
						
						
						
						
						
						
						
						
						
						
						
						
						
						
						
						
						
						
						
						
						
						
						
						
					
					<path class="st4" d="M0 302.92 L15.8 302.92"></path>
				</g>
				<g transform="translate(12.6562,590.131) rotate(179.975)" id="shape102-228">
					<title>Multi-Line.216</title>
					
						
						
						
						
						
						
						
						
						
						
						
						
						
						
						
						
						
						
						
						
						
						
						
						
						
						
						
						
						
						
						
						
						
						
						
						
						
						
						
						
						
					
					<path class="st4" d="M0 302.92 L12.52 302.92"></path>
				</g>
				<g transform="translate(315.448,275.012) rotate(90)" id="shape103-231">
					<title>Multi-Line.217</title>
					
						
						
						
						
						
						
						
						
						
						
						
						
						
						
						
						
						
						
						
						
						
						
						
						
						
						
						
						
						
						
						
						
						
						
						
						
						
						
						
						
						
						
						
						
						
						
						
					
					<path class="st4" d="M0 302.92 L12.2 302.92"></path>
				</g>
				<g transform="translate(54.9783,574.946) rotate(171.944)" id="shape104-234">
					<title>Multi-Line.218</title>
					
						
						
						
						
						
						
						
						
						
						
						
						
						
						
						
						
						
						
						
						
						
						
						
						
						
						
						
						
						
						
						
						
						
						
						
						
						
						
						
						
						
						
						
						
						
						
						
					
					<path class="st4" d="M0 302.92 L12.65 302.92"></path>
				</g>
				<g transform="translate(302.924,276.784) rotate(90)" id="shape105-237">
					<title>Multi-Line.219</title>
					
						
						
						
						
						
						
						
						
						
						
						
						
						
						
						
						
						
						
						
						
						
						
						
						
						
						
						
						
						
						
						
						
						
						
						
						
						
						
						
						
						
					
					<path class="st4" d="M0 302.92 L10.43 302.92"></path>
				</g>
				<g transform="translate(12.5237,591.154) rotate(180)" id="shape106-240">
					<title>Multi-Line.220</title>
					
						
						
						
						
						
						
						
						
						
						
						
						
						
						
						
						
						
						
						
						
						
						
						
						
						
						
						
						
						
						
						
						
						
						
						
						
						
						
						
						
						
					
					<path class="st4" d="M0 302.92 L12.52 302.92"></path>
				</g>
				<g transform="translate(315.448,288.295) rotate(90.0124)" id="shape107-243">
					<title>Multi-Line.221</title>
					
						
						
						
						
						
						
						
						
						
						
						
						
						
						
						
						
						
						
						
						
						
						
						
						
						
						
						
						
						
						
						
						
						
						
						
						
						
						
						
						
						
					
					<path class="st4" d="M0 302.92 L12.3 302.92"></path>
				</g>
				<g transform="translate(-31.346,600.26) rotate(-171.674)" id="shape108-246">
					<title>Multi-Line.222</title>
					
						
						
						
						
						
						
						
						
						
						
						
						
						
						
						
						
						
						
						
						
						
						
						
						
						
						
						
						
						
						
						
						
						
						
						
						
						
						
						
						
						
					
					<path class="st4" d="M0 302.92 L12.65 302.92"></path>
				</g>
				<g transform="translate(302.924,288.23) rotate(90)" id="shape109-249">
					<title>Multi-Line.223</title>
					
						
						
						
						
						
						
						
						
						
						
						
						
						
						
						
						
						
						
						
						
						
						
						
						
						
						
						
						
						
						
						
						
						
						
						
						
						
						
						
						
						
					
					<path class="st4" d="M0 302.92 L10.47 302.92"></path>
				</g>
			</g>
			<g transform="translate(16.8567,-39.5)" id="group110-252">
				<title>Sheet.110</title>
				<g transform="translate(8.92667,-29)" id="group111-253">
					<title>Sheet.111</title>
					<g transform="translate(7.99361E-15,-20)" id="group112-254">
						
							
							
							
							
						
						<title>Configure</title>
						<g id="shape113-255">
							<title>Sheet.113</title>
							<path class="st8" d="M8.3 297.75 C6.69 297.75 5.37 296.48 5.37 294.92 C5.37 293.37 6.69 292.1 8.3 292.1 C9.91 292.1
										 11.23 293.37 11.23 294.92 C11.23 296.48 9.91 297.75 8.3 297.75 ZM14.89 293.16 C14.74 292.64
										 14.53 292.15 14.26 291.7 L14.87 289.94 L13.48 288.59 L11.64 289.18 C11.16 288.92 10.64 288.71
										 10.11 288.57 L9.28 286.92 L7.32 286.92 L6.47 288.57 C5.93 288.71 5.42 288.92 4.96 289.18
										 L3.12 288.59 L1.73 289.94 L2.34 291.7 C2.08 292.17 1.86 292.67 1.71 293.18 L0 293.98 L0
										 295.87 L1.71 296.69 C1.86 297.21 2.08 297.7 2.34 298.15 L1.73 299.91 L3.12 301.25 L4.96
										 300.67 C5.44 300.92 5.96 301.14 6.49 301.28 L7.35 302.92 L9.3 302.92 L10.16 301.28 C10.69
										 301.14 11.21 300.92 11.67 300.67 L13.5 301.25 L14.89 299.91 L14.28 298.15 C14.55 297.68
										 14.77 297.18 14.92 296.67 L16.62 295.84 L16.62 293.96 L14.89 293.16 Z"></path>
						</g>
					</g>
					<g transform="translate(12.4685,0)" id="group114-257">
						
							
							
							
							
						
						<title>Configure.140</title>
						<g id="shape115-258">
							<title>Sheet.115</title>
							<path class="st8" d="M14.03 294.17 C11.31 294.17 9.08 292.03 9.08 289.4 C9.08 286.77 11.31 284.63 14.03 284.63 C16.76
										 284.63 18.98 286.77 18.98 289.4 C18.98 292.03 16.76 294.17 14.03 294.17 ZM25.17 286.42 C24.93
										 285.54 24.56 284.71 24.1 283.95 L25.13 280.97 L22.78 278.7 L19.69 279.69 C18.86 279.26 17.99
										 278.9 17.09 278.66 L15.68 275.88 L12.38 275.88 L10.94 278.66 C10.03 278.9 9.16 279.26 8.38
										 279.69 L5.28 278.7 L2.93 280.97 L3.96 283.95 C3.51 284.75 3.14 285.58 2.89 286.46 L0 287.81
										 L0 290.99 L2.89 292.38 C3.14 293.26 3.51 294.09 3.96 294.85 L2.93 297.83 L5.28 300.1 L8.38
										 299.11 C9.2 299.54 10.07 299.9 10.98 300.14 L12.42 302.92 L15.72 302.92 L17.17 300.14 C18.08
										 299.9 18.94 299.54 19.73 299.11 L22.82 300.1 L25.17 297.83 L24.14 294.85 C24.6 294.05 24.97
										 293.22 25.22 292.34 L28.1 290.95 L28.1 287.77 L25.17 286.42 Z"></path>
						</g>
					</g>
				</g>
				<g id="shape116-260">
					<title>Sheet.116</title>
					<desc>OS</desc>
					
					
					<rect class="st5" height="20" width="58.4267" y="282.924" x="0"></rect>
					<text class="st6" y="296.52" x="22.48">OS</text>				</g>
			</g>
		</g>
		<g transform="translate(35.6782,-37.9422)" id="shape2-263">
			<title>Rounded Rectangle.306</title>
			
				
				
				
				
				
				
				
				
				
				
				
				
				
				
				
				
			
			<path class="st1" d="M10.22 302.92 L835.21 302.92 A10.217 10.217 -180 0 0 845.43 292.71 L845.43 256.33 A10.217 10.217 -180 0 0 835.21
						 246.12 L10.22 246.12 A10.217 10.217 -180 0 0 0 256.33 L0 292.71 A10.217 10.217 -180 0 0 10.22 302.92 Z"></path>
		</g>
		<g transform="translate(51.9632,-58.75)" id="group3-265">
			<title>Sheet.3</title>
			<g transform="translate(0,5.8782)" id="shape4-266">
				<title>Round Corner Rectangle</title>
				
					
					
					
					
					
					
					
					
					
					
					
					
					
					
					
					
				
				<path class="st7" d="M0 302.92 L58.43 302.92 L58.43 274.12 L58.43 274.12 L0 274.12 L0 302.92 Z"></path>
			</g>
			<g transform="translate(5.31151,-2.9351)" id="shape5-268">
				<title>Round Corner Rectangle.194</title>
				
					
					
					
					
					
					
					
					
					
					
					
					
					
					
					
					
				
				<path class="st7" d="M2.12 302.92 L19.12 302.92 A2.12457 2.12457 -180 0 0 21.25 300.8 L21.25 296.76 A2.12457 2.12457 -180 0 0
							 19.12 294.63 L2.12 294.63 A2.12457 2.12457 -180 0 0 -0 296.76 L0 300.8 A2.12457 2.12457 -180 0 0 2.12
							 302.92 Z"></path>
			</g>
			<g transform="translate(34.574,-5.11479)" id="shape6-270">
				<title>Circle</title>
				
					
				
				<path class="st7" d="M0 300.96 A1.96723 1.96723 0 1 1 3.93 300.96 A1.96723 1.96723 0 0 1 0 300.96 Z"></path>
			</g>
			<g transform="translate(41.8528,-5.11479)" id="shape7-272">
				<title>Circle.196</title>
				
					
				
				<path class="st7" d="M0 300.96 A1.96723 1.96723 0 1 1 3.93 300.96 A1.96723 1.96723 0 0 1 0 300.96 Z"></path>
			</g>
			<g transform="translate(49.1315,-5.11479)" id="shape8-274">
				<title>Circle.198</title>
				
					
				
				<path class="st7" d="M0 300.96 A1.96723 1.96723 0 1 1 3.93 300.96 A1.96723 1.96723 0 0 1 0 300.96 Z"></path>
			</g>
		</g>
		<g transform="translate(132.963,-58.75)" id="shape9-276">
			<title>Sheet.9</title>
			<desc>Hardware</desc>
			
			
			<rect class="st5" height="20" width="108" y="282.924" x="0"></rect>
			<text class="st6" y="296.52" x="4">Hardware</text>		</g>
		<g transform="translate(496.283,-261.25)" id="shape63-279">
			<title>Round Corner Rectangle.623</title>
			<desc>Virtual Machine</desc>
			
				
				
				
				
				
				
				
				
				
				
				
				
				
				
				
				
			
			
			
			<path class="st2" d="M0 302.92 L108 302.92 L108 284.75 A4.49993 4.49993 -180 0 0 103.5 280.25 L4.5 280.25 A4.49993 4.49993 -180 0
						 0 0 284.75 L0 302.92 Z"></path>
			<text class="st10" y="294.59" x="21.62">Virtual Machine</text>		</g>
	</g>
</svg>
